%TF.GenerationSoftware,KiCad,Pcbnew,9.0.2*%
%TF.CreationDate,2025-07-08T20:10:03-07:00*%
%TF.ProjectId,Hackpad,4861636b-7061-4642-9e6b-696361645f70,rev?*%
%TF.SameCoordinates,Original*%
%TF.FileFunction,Copper,L1,Top*%
%TF.FilePolarity,Positive*%
%FSLAX46Y46*%
G04 Gerber Fmt 4.6, Leading zero omitted, Abs format (unit mm)*
G04 Created by KiCad (PCBNEW 9.0.2) date 2025-07-08 20:10:03*
%MOMM*%
%LPD*%
G01*
G04 APERTURE LIST*
G04 Aperture macros list*
%AMRoundRect*
0 Rectangle with rounded corners*
0 $1 Rounding radius*
0 $2 $3 $4 $5 $6 $7 $8 $9 X,Y pos of 4 corners*
0 Add a 4 corners polygon primitive as box body*
4,1,4,$2,$3,$4,$5,$6,$7,$8,$9,$2,$3,0*
0 Add four circle primitives for the rounded corners*
1,1,$1+$1,$2,$3*
1,1,$1+$1,$4,$5*
1,1,$1+$1,$6,$7*
1,1,$1+$1,$8,$9*
0 Add four rect primitives between the rounded corners*
20,1,$1+$1,$2,$3,$4,$5,0*
20,1,$1+$1,$4,$5,$6,$7,0*
20,1,$1+$1,$6,$7,$8,$9,0*
20,1,$1+$1,$8,$9,$2,$3,0*%
G04 Aperture macros list end*
%TA.AperFunction,SMDPad,CuDef*%
%ADD10R,1.600000X0.850000*%
%TD*%
%TA.AperFunction,ComponentPad*%
%ADD11C,2.200000*%
%TD*%
%TA.AperFunction,SMDPad,CuDef*%
%ADD12RoundRect,0.152400X-1.063600X-0.609600X1.063600X-0.609600X1.063600X0.609600X-1.063600X0.609600X0*%
%TD*%
%TA.AperFunction,ComponentPad*%
%ADD13C,1.524000*%
%TD*%
%TA.AperFunction,SMDPad,CuDef*%
%ADD14RoundRect,0.152400X1.063600X0.609600X-1.063600X0.609600X-1.063600X-0.609600X1.063600X-0.609600X0*%
%TD*%
%TA.AperFunction,ViaPad*%
%ADD15C,0.600000*%
%TD*%
%TA.AperFunction,Conductor*%
%ADD16C,0.200000*%
%TD*%
G04 APERTURE END LIST*
D10*
%TO.P,D3,1,DOUT*%
%TO.N,unconnected-(D3-DOUT-Pad1)*%
X170250000Y-96125000D03*
%TO.P,D3,2,VSS*%
%TO.N,GND*%
X170250000Y-97875000D03*
%TO.P,D3,3,DIN*%
%TO.N,Net-(D1-DOUT)*%
X173750000Y-97875000D03*
%TO.P,D3,4,VDD*%
%TO.N,+5V*%
X173750000Y-96125000D03*
%TD*%
%TO.P,D1,1,DOUT*%
%TO.N,Net-(D1-DOUT)*%
X181250000Y-96125000D03*
%TO.P,D1,2,VSS*%
%TO.N,GND*%
X181250000Y-97875000D03*
%TO.P,D1,3,DIN*%
%TO.N,Net-(D1-DIN)*%
X184750000Y-97875000D03*
%TO.P,D1,4,VDD*%
%TO.N,+5V*%
X184750000Y-96125000D03*
%TD*%
D11*
%TO.P,SW6,1,1*%
%TO.N,GND*%
X183650000Y-130651250D03*
%TO.P,SW6,2,2*%
%TO.N,Net-(U1-GPIO7{slash}SCL)*%
X177300000Y-133191250D03*
%TD*%
%TO.P,SW5,1,1*%
%TO.N,GND*%
X183650000Y-111601250D03*
%TO.P,SW5,2,2*%
%TO.N,Net-(U1-GPIO0{slash}TX)*%
X177300000Y-114141250D03*
%TD*%
D12*
%TO.P,U1,14,VBUS*%
%TO.N,+5V*%
X160855000Y-87630000D03*
D13*
X160020000Y-87630000D03*
D12*
%TO.P,U1,13,GND*%
%TO.N,GND*%
X160855000Y-90170000D03*
D13*
X160020000Y-90170000D03*
D12*
%TO.P,U1,12,3V3*%
%TO.N,unconnected-(U1-3V3-Pad12)*%
X160855000Y-92710000D03*
D13*
X160020000Y-92710000D03*
D12*
%TO.P,U1,11,GPIO3/MOSI*%
%TO.N,Net-(U1-GPIO3{slash}MOSI)*%
X160855000Y-95250000D03*
D13*
X160020000Y-95250000D03*
D12*
%TO.P,U1,10,GPIO4/MISO*%
%TO.N,Net-(U1-GPIO4{slash}MISO)*%
X160855000Y-97790000D03*
D13*
X160020000Y-97790000D03*
D12*
%TO.P,U1,9,GPIO2/SCK*%
%TO.N,Net-(U1-GPIO2{slash}SCK)*%
X160855000Y-100330000D03*
D13*
X160020000Y-100330000D03*
D12*
%TO.P,U1,8,GPIO1/RX*%
%TO.N,Net-(U1-GPIO1{slash}RX)*%
X160855000Y-102870000D03*
D13*
X160020000Y-102870000D03*
%TO.P,U1,7,GPIO0/TX*%
%TO.N,Net-(U1-GPIO0{slash}TX)*%
X144780000Y-102870000D03*
D14*
X143945000Y-102870000D03*
D13*
%TO.P,U1,6,GPIO7/SCL*%
%TO.N,Net-(U1-GPIO7{slash}SCL)*%
X144780000Y-100330000D03*
D14*
X143945000Y-100330000D03*
D13*
%TO.P,U1,5,GPIO6/SDA*%
%TO.N,Net-(D1-DIN)*%
X144780000Y-97790000D03*
D14*
X143945000Y-97790000D03*
D13*
%TO.P,U1,4,GPIO29/ADC3/A3*%
%TO.N,unconnected-(U1-GPIO29{slash}ADC3{slash}A3-Pad4)*%
X144780000Y-95250000D03*
D14*
X143945000Y-95250000D03*
D13*
%TO.P,U1,3,GPIO28/ADC2/A2*%
%TO.N,unconnected-(U1-GPIO28{slash}ADC2{slash}A2-Pad3)*%
X144780000Y-92710000D03*
D14*
X143945000Y-92710000D03*
D13*
%TO.P,U1,2,GPIO27/ADC1/A1*%
%TO.N,unconnected-(U1-GPIO27{slash}ADC1{slash}A1-Pad2)*%
X144780000Y-90170000D03*
D14*
X143945000Y-90170000D03*
D13*
%TO.P,U1,1,GPIO26/ADC0/A0*%
%TO.N,unconnected-(U1-GPIO26{slash}ADC0{slash}A0-Pad1)*%
X144780000Y-87630000D03*
D14*
X143945000Y-87630000D03*
%TD*%
D11*
%TO.P,SW4,1,1*%
%TO.N,GND*%
X164465000Y-130651250D03*
%TO.P,SW4,2,2*%
%TO.N,Net-(U1-GPIO3{slash}MOSI)*%
X158115000Y-133191250D03*
%TD*%
%TO.P,SW3,1,1*%
%TO.N,GND*%
X145415000Y-130651250D03*
%TO.P,SW3,2,2*%
%TO.N,Net-(U1-GPIO4{slash}MISO)*%
X139065000Y-133191250D03*
%TD*%
%TO.P,SW2,1,1*%
%TO.N,GND*%
X145415000Y-111601250D03*
%TO.P,SW2,2,2*%
%TO.N,Net-(U1-GPIO2{slash}SCK)*%
X139065000Y-114141250D03*
%TD*%
%TO.P,SW1,1,1*%
%TO.N,GND*%
X164465000Y-111601250D03*
%TO.P,SW1,2,2*%
%TO.N,Net-(U1-GPIO1{slash}RX)*%
X158115000Y-114141250D03*
%TD*%
D15*
%TO.N,Net-(D1-DIN)*%
X161925000Y-104775000D03*
X172187500Y-101575000D03*
%TO.N,Net-(U1-GPIO7{slash}SCL)*%
X161925000Y-109537500D03*
%TO.N,Net-(U1-GPIO0{slash}TX)*%
X159543750Y-107527845D03*
%TO.N,Net-(U1-GPIO4{slash}MISO)*%
X153900000Y-97700000D03*
%TO.N,Net-(U1-GPIO2{slash}SCK)*%
X152000000Y-100100000D03*
%TD*%
D16*
%TO.N,Net-(D1-DIN)*%
X172187500Y-101575000D02*
X172205750Y-101556750D01*
X172205750Y-101556750D02*
X181068250Y-101556750D01*
X181068250Y-101556750D02*
X184750000Y-97875000D01*
%TO.N,GND*%
X170250000Y-107350000D02*
X168716250Y-107350000D01*
X168716250Y-107350000D02*
X164465000Y-111601250D01*
%TO.N,Net-(D1-DOUT)*%
X173750000Y-97875000D02*
X177439500Y-97875000D01*
X177439500Y-97875000D02*
X179189500Y-96125000D01*
%TO.N,GND*%
X170976000Y-98601000D02*
X174606750Y-98601000D01*
%TO.N,+5V*%
X173750000Y-96125000D02*
X174476000Y-95399000D01*
X174476000Y-95399000D02*
X184024000Y-95399000D01*
X184024000Y-95399000D02*
X184750000Y-96125000D01*
X168250000Y-94782370D02*
X172407370Y-94782370D01*
X172407370Y-94782370D02*
X173750000Y-96125000D01*
%TO.N,GND*%
X167872000Y-95497000D02*
X164672000Y-98697000D01*
X164672000Y-98697000D02*
X162372000Y-98697000D01*
%TO.N,+5V*%
X185062500Y-96437500D02*
X184946050Y-96321050D01*
%TO.N,Net-(D1-DOUT)*%
X181250000Y-96125000D02*
X179189500Y-96125000D01*
%TO.N,GND*%
X167872000Y-95497000D02*
X170250000Y-97875000D01*
X180542250Y-98582750D02*
X174606750Y-98582750D01*
X181250000Y-97875000D02*
X180542250Y-98582750D01*
X170976000Y-98601000D02*
X170250000Y-97875000D01*
X170250000Y-107350000D02*
X170250000Y-97875000D01*
%TO.N,Net-(D1-DIN)*%
X161925000Y-104775000D02*
X158579543Y-104775000D01*
X158579543Y-104775000D02*
X155872543Y-102068000D01*
X155872543Y-102068000D02*
X149058000Y-102068000D01*
X149058000Y-102068000D02*
X144780000Y-97790000D01*
%TO.N,Net-(U1-GPIO0{slash}TX)*%
X155257500Y-102870000D02*
X144780000Y-102870000D01*
X159543750Y-107527845D02*
X159543750Y-107156250D01*
X159543750Y-107156250D02*
X155257500Y-102870000D01*
%TO.N,Net-(U1-GPIO7{slash}SCL)*%
X161925000Y-109537500D02*
X161925000Y-108687557D01*
X161925000Y-108687557D02*
X155706443Y-102469000D01*
X146084000Y-102469000D02*
X143945000Y-100330000D01*
X155706443Y-102469000D02*
X146084000Y-102469000D01*
%TO.N,GND*%
X183650000Y-111601250D02*
X164465000Y-111601250D01*
X183650000Y-130651250D02*
X183650000Y-111601250D01*
X160020000Y-90170000D02*
X160855000Y-90170000D01*
X162372000Y-91687000D02*
X162372000Y-98697000D01*
X160855000Y-90170000D02*
X162372000Y-91687000D01*
%TO.N,Net-(U1-GPIO4{slash}MISO)*%
X153900000Y-97700000D02*
X153990000Y-97790000D01*
X153990000Y-97790000D02*
X160020000Y-97790000D01*
%TO.N,Net-(U1-GPIO2{slash}SCK)*%
X152000000Y-100100000D02*
X152230000Y-100330000D01*
X152230000Y-100330000D02*
X160020000Y-100330000D01*
%TO.N,+5V*%
X160020000Y-87630000D02*
X161097630Y-87630000D01*
%TO.N,GND*%
X145415000Y-111601250D02*
X145415000Y-111515000D01*
X145398750Y-111601250D02*
X145200000Y-111800000D01*
X145415000Y-111601250D02*
X145398750Y-111601250D01*
X164465000Y-111601250D02*
X164465000Y-110835000D01*
X164465000Y-110835000D02*
X164750000Y-110550000D01*
X164465000Y-111601250D02*
X164465000Y-130651250D01*
X145415000Y-111601250D02*
X164465000Y-111601250D01*
X145415000Y-130651250D02*
X145415000Y-111601250D01*
%TO.N,+5V*%
X161097630Y-87630000D02*
X168250000Y-94782370D01*
%TD*%
M02*
