%TF.GenerationSoftware,KiCad,Pcbnew,9.0.2*%
%TF.CreationDate,2025-07-08T20:10:03-07:00*%
%TF.ProjectId,Hackpad,4861636b-7061-4642-9e6b-696361645f70,rev?*%
%TF.SameCoordinates,Original*%
%TF.FileFunction,Copper,L2,Bot*%
%TF.FilePolarity,Positive*%
%FSLAX46Y46*%
G04 Gerber Fmt 4.6, Leading zero omitted, Abs format (unit mm)*
G04 Created by KiCad (PCBNEW 9.0.2) date 2025-07-08 20:10:03*
%MOMM*%
%LPD*%
G01*
G04 APERTURE LIST*
%TA.AperFunction,ComponentPad*%
%ADD10C,2.200000*%
%TD*%
%TA.AperFunction,ComponentPad*%
%ADD11C,1.524000*%
%TD*%
%TA.AperFunction,ViaPad*%
%ADD12C,0.600000*%
%TD*%
%TA.AperFunction,Conductor*%
%ADD13C,0.200000*%
%TD*%
G04 APERTURE END LIST*
D10*
%TO.P,SW6,1,1*%
%TO.N,GND*%
X183650000Y-130651250D03*
%TO.P,SW6,2,2*%
%TO.N,Net-(U1-GPIO7{slash}SCL)*%
X177300000Y-133191250D03*
%TD*%
%TO.P,SW5,1,1*%
%TO.N,GND*%
X183650000Y-111601250D03*
%TO.P,SW5,2,2*%
%TO.N,Net-(U1-GPIO0{slash}TX)*%
X177300000Y-114141250D03*
%TD*%
D11*
%TO.P,U1,14,VBUS*%
%TO.N,+5V*%
X160020000Y-87630000D03*
%TO.P,U1,13,GND*%
%TO.N,GND*%
X160020000Y-90170000D03*
%TO.P,U1,12,3V3*%
%TO.N,unconnected-(U1-3V3-Pad12)*%
X160020000Y-92710000D03*
%TO.P,U1,11,GPIO3/MOSI*%
%TO.N,Net-(U1-GPIO3{slash}MOSI)*%
X160020000Y-95250000D03*
%TO.P,U1,10,GPIO4/MISO*%
%TO.N,Net-(U1-GPIO4{slash}MISO)*%
X160020000Y-97790000D03*
%TO.P,U1,9,GPIO2/SCK*%
%TO.N,Net-(U1-GPIO2{slash}SCK)*%
X160020000Y-100330000D03*
%TO.P,U1,8,GPIO1/RX*%
%TO.N,Net-(U1-GPIO1{slash}RX)*%
X160020000Y-102870000D03*
%TO.P,U1,7,GPIO0/TX*%
%TO.N,Net-(U1-GPIO0{slash}TX)*%
X144780000Y-102870000D03*
%TO.P,U1,6,GPIO7/SCL*%
%TO.N,Net-(U1-GPIO7{slash}SCL)*%
X144780000Y-100330000D03*
%TO.P,U1,5,GPIO6/SDA*%
%TO.N,Net-(D1-DIN)*%
X144780000Y-97790000D03*
%TO.P,U1,4,GPIO29/ADC3/A3*%
%TO.N,unconnected-(U1-GPIO29{slash}ADC3{slash}A3-Pad4)*%
X144780000Y-95250000D03*
%TO.P,U1,3,GPIO28/ADC2/A2*%
%TO.N,unconnected-(U1-GPIO28{slash}ADC2{slash}A2-Pad3)*%
X144780000Y-92710000D03*
%TO.P,U1,2,GPIO27/ADC1/A1*%
%TO.N,unconnected-(U1-GPIO27{slash}ADC1{slash}A1-Pad2)*%
X144780000Y-90170000D03*
%TO.P,U1,1,GPIO26/ADC0/A0*%
%TO.N,unconnected-(U1-GPIO26{slash}ADC0{slash}A0-Pad1)*%
X144780000Y-87630000D03*
%TD*%
D10*
%TO.P,SW4,1,1*%
%TO.N,GND*%
X164465000Y-130651250D03*
%TO.P,SW4,2,2*%
%TO.N,Net-(U1-GPIO3{slash}MOSI)*%
X158115000Y-133191250D03*
%TD*%
%TO.P,SW3,1,1*%
%TO.N,GND*%
X145415000Y-130651250D03*
%TO.P,SW3,2,2*%
%TO.N,Net-(U1-GPIO4{slash}MISO)*%
X139065000Y-133191250D03*
%TD*%
%TO.P,SW2,1,1*%
%TO.N,GND*%
X145415000Y-111601250D03*
%TO.P,SW2,2,2*%
%TO.N,Net-(U1-GPIO2{slash}SCK)*%
X139065000Y-114141250D03*
%TD*%
%TO.P,SW1,1,1*%
%TO.N,GND*%
X164465000Y-111601250D03*
%TO.P,SW1,2,2*%
%TO.N,Net-(U1-GPIO1{slash}RX)*%
X158115000Y-114141250D03*
%TD*%
D12*
%TO.N,Net-(D1-DIN)*%
X161925000Y-104775000D03*
X172187500Y-101575000D03*
%TO.N,Net-(U1-GPIO7{slash}SCL)*%
X161925000Y-109537500D03*
%TO.N,Net-(U1-GPIO0{slash}TX)*%
X159543750Y-107527845D03*
%TO.N,Net-(U1-GPIO4{slash}MISO)*%
X153900000Y-97700000D03*
%TO.N,Net-(U1-GPIO2{slash}SCK)*%
X152000000Y-100100000D03*
%TD*%
D13*
%TO.N,Net-(D1-DIN)*%
X172187500Y-101575000D02*
X165125000Y-101575000D01*
X165125000Y-101575000D02*
X161925000Y-104775000D01*
%TO.N,Net-(U1-GPIO0{slash}TX)*%
X159915345Y-107156250D02*
X170315000Y-107156250D01*
X159543750Y-107527845D02*
X159915345Y-107156250D01*
X170315000Y-107156250D02*
X177300000Y-114141250D01*
%TO.N,Net-(U1-GPIO7{slash}SCL)*%
X177300000Y-122454936D02*
X164382564Y-109537500D01*
X177300000Y-133191250D02*
X177300000Y-122454936D01*
X164382564Y-109537500D02*
X161925000Y-109537500D01*
%TO.N,Net-(U1-GPIO1{slash}RX)*%
X158115000Y-104775000D02*
X160020000Y-102870000D01*
%TO.N,Net-(U1-GPIO2{slash}SCK)*%
X152000000Y-100100000D02*
X152100000Y-100000000D01*
X152000000Y-101206250D02*
X152000000Y-100100000D01*
%TO.N,Net-(U1-GPIO4{slash}MISO)*%
X153900000Y-97500000D02*
X153900000Y-97700000D01*
%TO.N,Net-(U1-GPIO3{slash}MOSI)*%
X156714000Y-98556000D02*
X160020000Y-95250000D01*
%TO.N,Net-(U1-GPIO4{slash}MISO)*%
X139065000Y-133191250D02*
X153900000Y-118356250D01*
X153900000Y-118356250D02*
X153900000Y-97700000D01*
%TO.N,Net-(U1-GPIO2{slash}SCK)*%
X139065000Y-114141250D02*
X152000000Y-101206250D01*
%TO.N,Net-(U1-GPIO1{slash}RX)*%
X158115000Y-114141250D02*
X158115000Y-104775000D01*
%TO.N,Net-(U1-GPIO3{slash}MOSI)*%
X156714000Y-114851780D02*
X156714000Y-98556000D01*
X158115000Y-116252780D02*
X156714000Y-114851780D01*
X158115000Y-133191250D02*
X158115000Y-116252780D01*
%TD*%
M02*
