%TF.GenerationSoftware,KiCad,Pcbnew,9.0.2*%
%TF.CreationDate,2025-07-08T20:10:04-07:00*%
%TF.ProjectId,Hackpad,4861636b-7061-4642-9e6b-696361645f70,rev?*%
%TF.SameCoordinates,Original*%
%TF.FileFunction,Soldermask,Top*%
%TF.FilePolarity,Negative*%
%FSLAX46Y46*%
G04 Gerber Fmt 4.6, Leading zero omitted, Abs format (unit mm)*
G04 Created by KiCad (PCBNEW 9.0.2) date 2025-07-08 20:10:04*
%MOMM*%
%LPD*%
G01*
G04 APERTURE LIST*
G04 Aperture macros list*
%AMRoundRect*
0 Rectangle with rounded corners*
0 $1 Rounding radius*
0 $2 $3 $4 $5 $6 $7 $8 $9 X,Y pos of 4 corners*
0 Add a 4 corners polygon primitive as box body*
4,1,4,$2,$3,$4,$5,$6,$7,$8,$9,$2,$3,0*
0 Add four circle primitives for the rounded corners*
1,1,$1+$1,$2,$3*
1,1,$1+$1,$4,$5*
1,1,$1+$1,$6,$7*
1,1,$1+$1,$8,$9*
0 Add four rect primitives between the rounded corners*
20,1,$1+$1,$2,$3,$4,$5,0*
20,1,$1+$1,$4,$5,$6,$7,0*
20,1,$1+$1,$6,$7,$8,$9,0*
20,1,$1+$1,$8,$9,$2,$3,0*%
G04 Aperture macros list end*
%ADD10R,1.600000X0.850000*%
%ADD11C,1.700000*%
%ADD12C,4.000000*%
%ADD13C,2.200000*%
%ADD14RoundRect,0.152400X-1.063600X-0.609600X1.063600X-0.609600X1.063600X0.609600X-1.063600X0.609600X0*%
%ADD15C,1.524000*%
%ADD16RoundRect,0.152400X1.063600X0.609600X-1.063600X0.609600X-1.063600X-0.609600X1.063600X-0.609600X0*%
G04 APERTURE END LIST*
D10*
%TO.C,D3*%
X170250000Y-96125000D03*
X170250000Y-97875000D03*
X173750000Y-97875000D03*
X173750000Y-96125000D03*
%TD*%
%TO.C,D1*%
X181250000Y-96125000D03*
X181250000Y-97875000D03*
X184750000Y-97875000D03*
X184750000Y-96125000D03*
%TD*%
D11*
%TO.C,SW6*%
X176030000Y-135731250D03*
D12*
X181110000Y-135731250D03*
D11*
X186190000Y-135731250D03*
D13*
X183650000Y-130651250D03*
X177300000Y-133191250D03*
%TD*%
D11*
%TO.C,SW5*%
X176030000Y-116681250D03*
D12*
X181110000Y-116681250D03*
D11*
X186190000Y-116681250D03*
D13*
X183650000Y-111601250D03*
X177300000Y-114141250D03*
%TD*%
D14*
%TO.C,U1*%
X160855000Y-87630000D03*
D15*
X160020000Y-87630000D03*
D14*
X160855000Y-90170000D03*
D15*
X160020000Y-90170000D03*
D14*
X160855000Y-92710000D03*
D15*
X160020000Y-92710000D03*
D14*
X160855000Y-95250000D03*
D15*
X160020000Y-95250000D03*
D14*
X160855000Y-97790000D03*
D15*
X160020000Y-97790000D03*
D14*
X160855000Y-100330000D03*
D15*
X160020000Y-100330000D03*
D14*
X160855000Y-102870000D03*
D15*
X160020000Y-102870000D03*
X144780000Y-102870000D03*
D16*
X143945000Y-102870000D03*
D15*
X144780000Y-100330000D03*
D16*
X143945000Y-100330000D03*
D15*
X144780000Y-97790000D03*
D16*
X143945000Y-97790000D03*
D15*
X144780000Y-95250000D03*
D16*
X143945000Y-95250000D03*
D15*
X144780000Y-92710000D03*
D16*
X143945000Y-92710000D03*
D15*
X144780000Y-90170000D03*
D16*
X143945000Y-90170000D03*
D15*
X144780000Y-87630000D03*
D16*
X143945000Y-87630000D03*
%TD*%
D11*
%TO.C,SW4*%
X156845000Y-135731250D03*
D12*
X161925000Y-135731250D03*
D11*
X167005000Y-135731250D03*
D13*
X164465000Y-130651250D03*
X158115000Y-133191250D03*
%TD*%
D11*
%TO.C,SW3*%
X137795000Y-135731250D03*
D12*
X142875000Y-135731250D03*
D11*
X147955000Y-135731250D03*
D13*
X145415000Y-130651250D03*
X139065000Y-133191250D03*
%TD*%
D11*
%TO.C,SW2*%
X137795000Y-116681250D03*
D12*
X142875000Y-116681250D03*
D11*
X147955000Y-116681250D03*
D13*
X145415000Y-111601250D03*
X139065000Y-114141250D03*
%TD*%
D11*
%TO.C,SW1*%
X156845000Y-116681250D03*
D12*
X161925000Y-116681250D03*
D11*
X167005000Y-116681250D03*
D13*
X164465000Y-111601250D03*
X158115000Y-114141250D03*
%TD*%
M02*
