%TF.GenerationSoftware,KiCad,Pcbnew,9.0.2*%
%TF.CreationDate,2025-07-08T20:10:04-07:00*%
%TF.ProjectId,Hackpad,4861636b-7061-4642-9e6b-696361645f70,rev?*%
%TF.SameCoordinates,Original*%
%TF.FileFunction,Legend,Top*%
%TF.FilePolarity,Positive*%
%FSLAX46Y46*%
G04 Gerber Fmt 4.6, Leading zero omitted, Abs format (unit mm)*
G04 Created by KiCad (PCBNEW 9.0.2) date 2025-07-08 20:10:04*
%MOMM*%
%LPD*%
G01*
G04 APERTURE LIST*
%ADD10C,0.300000*%
%ADD11C,0.150000*%
%ADD12C,0.101600*%
%ADD13C,0.120000*%
%ADD14C,0.504000*%
%ADD15C,0.127000*%
%ADD16C,0.100000*%
G04 APERTURE END LIST*
D10*
X146911653Y-92600828D02*
X147911653Y-94100828D01*
X147911653Y-92600828D02*
X146911653Y-94100828D01*
X148483081Y-94100828D02*
X148483081Y-92600828D01*
X149125939Y-93672257D02*
X149840225Y-93672257D01*
X148983082Y-94100828D02*
X149483082Y-92600828D01*
X149483082Y-92600828D02*
X149983082Y-94100828D01*
X150768796Y-92600828D02*
X151054510Y-92600828D01*
X151054510Y-92600828D02*
X151197367Y-92672257D01*
X151197367Y-92672257D02*
X151340224Y-92815114D01*
X151340224Y-92815114D02*
X151411653Y-93100828D01*
X151411653Y-93100828D02*
X151411653Y-93600828D01*
X151411653Y-93600828D02*
X151340224Y-93886542D01*
X151340224Y-93886542D02*
X151197367Y-94029400D01*
X151197367Y-94029400D02*
X151054510Y-94100828D01*
X151054510Y-94100828D02*
X150768796Y-94100828D01*
X150768796Y-94100828D02*
X150625939Y-94029400D01*
X150625939Y-94029400D02*
X150483081Y-93886542D01*
X150483081Y-93886542D02*
X150411653Y-93600828D01*
X150411653Y-93600828D02*
X150411653Y-93100828D01*
X150411653Y-93100828D02*
X150483081Y-92815114D01*
X150483081Y-92815114D02*
X150625939Y-92672257D01*
X150625939Y-92672257D02*
X150768796Y-92600828D01*
X153197367Y-94100828D02*
X153197367Y-92600828D01*
X153197367Y-93315114D02*
X154054510Y-93315114D01*
X154054510Y-94100828D02*
X154054510Y-92600828D01*
X154768796Y-93315114D02*
X155268796Y-93315114D01*
X155483082Y-94100828D02*
X154768796Y-94100828D01*
X154768796Y-94100828D02*
X154768796Y-92600828D01*
X154768796Y-92600828D02*
X155483082Y-92600828D01*
X156983082Y-94100828D02*
X156483082Y-93386542D01*
X156125939Y-94100828D02*
X156125939Y-92600828D01*
X156125939Y-92600828D02*
X156697368Y-92600828D01*
X156697368Y-92600828D02*
X156840225Y-92672257D01*
X156840225Y-92672257D02*
X156911654Y-92743685D01*
X156911654Y-92743685D02*
X156983082Y-92886542D01*
X156983082Y-92886542D02*
X156983082Y-93100828D01*
X156983082Y-93100828D02*
X156911654Y-93243685D01*
X156911654Y-93243685D02*
X156840225Y-93315114D01*
X156840225Y-93315114D02*
X156697368Y-93386542D01*
X156697368Y-93386542D02*
X156125939Y-93386542D01*
X157625939Y-93315114D02*
X158125939Y-93315114D01*
X158340225Y-94100828D02*
X157625939Y-94100828D01*
X157625939Y-94100828D02*
X157625939Y-92600828D01*
X157625939Y-92600828D02*
X158340225Y-92600828D01*
D11*
X171261905Y-94704819D02*
X171261905Y-93704819D01*
X171261905Y-93704819D02*
X171500000Y-93704819D01*
X171500000Y-93704819D02*
X171642857Y-93752438D01*
X171642857Y-93752438D02*
X171738095Y-93847676D01*
X171738095Y-93847676D02*
X171785714Y-93942914D01*
X171785714Y-93942914D02*
X171833333Y-94133390D01*
X171833333Y-94133390D02*
X171833333Y-94276247D01*
X171833333Y-94276247D02*
X171785714Y-94466723D01*
X171785714Y-94466723D02*
X171738095Y-94561961D01*
X171738095Y-94561961D02*
X171642857Y-94657200D01*
X171642857Y-94657200D02*
X171500000Y-94704819D01*
X171500000Y-94704819D02*
X171261905Y-94704819D01*
X172166667Y-93704819D02*
X172785714Y-93704819D01*
X172785714Y-93704819D02*
X172452381Y-94085771D01*
X172452381Y-94085771D02*
X172595238Y-94085771D01*
X172595238Y-94085771D02*
X172690476Y-94133390D01*
X172690476Y-94133390D02*
X172738095Y-94181009D01*
X172738095Y-94181009D02*
X172785714Y-94276247D01*
X172785714Y-94276247D02*
X172785714Y-94514342D01*
X172785714Y-94514342D02*
X172738095Y-94609580D01*
X172738095Y-94609580D02*
X172690476Y-94657200D01*
X172690476Y-94657200D02*
X172595238Y-94704819D01*
X172595238Y-94704819D02*
X172309524Y-94704819D01*
X172309524Y-94704819D02*
X172214286Y-94657200D01*
X172214286Y-94657200D02*
X172166667Y-94609580D01*
X169028571Y-96487295D02*
X168571428Y-96487295D01*
X168800000Y-96487295D02*
X168800000Y-95687295D01*
X168800000Y-95687295D02*
X168723809Y-95801580D01*
X168723809Y-95801580D02*
X168647619Y-95877771D01*
X168647619Y-95877771D02*
X168571428Y-95915866D01*
X182261905Y-94704819D02*
X182261905Y-93704819D01*
X182261905Y-93704819D02*
X182500000Y-93704819D01*
X182500000Y-93704819D02*
X182642857Y-93752438D01*
X182642857Y-93752438D02*
X182738095Y-93847676D01*
X182738095Y-93847676D02*
X182785714Y-93942914D01*
X182785714Y-93942914D02*
X182833333Y-94133390D01*
X182833333Y-94133390D02*
X182833333Y-94276247D01*
X182833333Y-94276247D02*
X182785714Y-94466723D01*
X182785714Y-94466723D02*
X182738095Y-94561961D01*
X182738095Y-94561961D02*
X182642857Y-94657200D01*
X182642857Y-94657200D02*
X182500000Y-94704819D01*
X182500000Y-94704819D02*
X182261905Y-94704819D01*
X183785714Y-94704819D02*
X183214286Y-94704819D01*
X183500000Y-94704819D02*
X183500000Y-93704819D01*
X183500000Y-93704819D02*
X183404762Y-93847676D01*
X183404762Y-93847676D02*
X183309524Y-93942914D01*
X183309524Y-93942914D02*
X183214286Y-93990533D01*
X180028571Y-96487295D02*
X179571428Y-96487295D01*
X179800000Y-96487295D02*
X179800000Y-95687295D01*
X179800000Y-95687295D02*
X179723809Y-95801580D01*
X179723809Y-95801580D02*
X179647619Y-95877771D01*
X179647619Y-95877771D02*
X179571428Y-95915866D01*
X179776667Y-128264450D02*
X179919524Y-128312069D01*
X179919524Y-128312069D02*
X180157619Y-128312069D01*
X180157619Y-128312069D02*
X180252857Y-128264450D01*
X180252857Y-128264450D02*
X180300476Y-128216830D01*
X180300476Y-128216830D02*
X180348095Y-128121592D01*
X180348095Y-128121592D02*
X180348095Y-128026354D01*
X180348095Y-128026354D02*
X180300476Y-127931116D01*
X180300476Y-127931116D02*
X180252857Y-127883497D01*
X180252857Y-127883497D02*
X180157619Y-127835878D01*
X180157619Y-127835878D02*
X179967143Y-127788259D01*
X179967143Y-127788259D02*
X179871905Y-127740640D01*
X179871905Y-127740640D02*
X179824286Y-127693021D01*
X179824286Y-127693021D02*
X179776667Y-127597783D01*
X179776667Y-127597783D02*
X179776667Y-127502545D01*
X179776667Y-127502545D02*
X179824286Y-127407307D01*
X179824286Y-127407307D02*
X179871905Y-127359688D01*
X179871905Y-127359688D02*
X179967143Y-127312069D01*
X179967143Y-127312069D02*
X180205238Y-127312069D01*
X180205238Y-127312069D02*
X180348095Y-127359688D01*
X180681429Y-127312069D02*
X180919524Y-128312069D01*
X180919524Y-128312069D02*
X181110000Y-127597783D01*
X181110000Y-127597783D02*
X181300476Y-128312069D01*
X181300476Y-128312069D02*
X181538572Y-127312069D01*
X182348095Y-127312069D02*
X182157619Y-127312069D01*
X182157619Y-127312069D02*
X182062381Y-127359688D01*
X182062381Y-127359688D02*
X182014762Y-127407307D01*
X182014762Y-127407307D02*
X181919524Y-127550164D01*
X181919524Y-127550164D02*
X181871905Y-127740640D01*
X181871905Y-127740640D02*
X181871905Y-128121592D01*
X181871905Y-128121592D02*
X181919524Y-128216830D01*
X181919524Y-128216830D02*
X181967143Y-128264450D01*
X181967143Y-128264450D02*
X182062381Y-128312069D01*
X182062381Y-128312069D02*
X182252857Y-128312069D01*
X182252857Y-128312069D02*
X182348095Y-128264450D01*
X182348095Y-128264450D02*
X182395714Y-128216830D01*
X182395714Y-128216830D02*
X182443333Y-128121592D01*
X182443333Y-128121592D02*
X182443333Y-127883497D01*
X182443333Y-127883497D02*
X182395714Y-127788259D01*
X182395714Y-127788259D02*
X182348095Y-127740640D01*
X182348095Y-127740640D02*
X182252857Y-127693021D01*
X182252857Y-127693021D02*
X182062381Y-127693021D01*
X182062381Y-127693021D02*
X181967143Y-127740640D01*
X181967143Y-127740640D02*
X181919524Y-127788259D01*
X181919524Y-127788259D02*
X181871905Y-127883497D01*
X179776667Y-109214450D02*
X179919524Y-109262069D01*
X179919524Y-109262069D02*
X180157619Y-109262069D01*
X180157619Y-109262069D02*
X180252857Y-109214450D01*
X180252857Y-109214450D02*
X180300476Y-109166830D01*
X180300476Y-109166830D02*
X180348095Y-109071592D01*
X180348095Y-109071592D02*
X180348095Y-108976354D01*
X180348095Y-108976354D02*
X180300476Y-108881116D01*
X180300476Y-108881116D02*
X180252857Y-108833497D01*
X180252857Y-108833497D02*
X180157619Y-108785878D01*
X180157619Y-108785878D02*
X179967143Y-108738259D01*
X179967143Y-108738259D02*
X179871905Y-108690640D01*
X179871905Y-108690640D02*
X179824286Y-108643021D01*
X179824286Y-108643021D02*
X179776667Y-108547783D01*
X179776667Y-108547783D02*
X179776667Y-108452545D01*
X179776667Y-108452545D02*
X179824286Y-108357307D01*
X179824286Y-108357307D02*
X179871905Y-108309688D01*
X179871905Y-108309688D02*
X179967143Y-108262069D01*
X179967143Y-108262069D02*
X180205238Y-108262069D01*
X180205238Y-108262069D02*
X180348095Y-108309688D01*
X180681429Y-108262069D02*
X180919524Y-109262069D01*
X180919524Y-109262069D02*
X181110000Y-108547783D01*
X181110000Y-108547783D02*
X181300476Y-109262069D01*
X181300476Y-109262069D02*
X181538572Y-108262069D01*
X182395714Y-108262069D02*
X181919524Y-108262069D01*
X181919524Y-108262069D02*
X181871905Y-108738259D01*
X181871905Y-108738259D02*
X181919524Y-108690640D01*
X181919524Y-108690640D02*
X182014762Y-108643021D01*
X182014762Y-108643021D02*
X182252857Y-108643021D01*
X182252857Y-108643021D02*
X182348095Y-108690640D01*
X182348095Y-108690640D02*
X182395714Y-108738259D01*
X182395714Y-108738259D02*
X182443333Y-108833497D01*
X182443333Y-108833497D02*
X182443333Y-109071592D01*
X182443333Y-109071592D02*
X182395714Y-109166830D01*
X182395714Y-109166830D02*
X182348095Y-109214450D01*
X182348095Y-109214450D02*
X182252857Y-109262069D01*
X182252857Y-109262069D02*
X182014762Y-109262069D01*
X182014762Y-109262069D02*
X181919524Y-109214450D01*
X181919524Y-109214450D02*
X181871905Y-109166830D01*
D12*
X143416190Y-82903479D02*
X143416190Y-83417526D01*
X143416190Y-83417526D02*
X143446428Y-83478002D01*
X143446428Y-83478002D02*
X143476666Y-83508241D01*
X143476666Y-83508241D02*
X143537142Y-83538479D01*
X143537142Y-83538479D02*
X143658095Y-83538479D01*
X143658095Y-83538479D02*
X143718571Y-83508241D01*
X143718571Y-83508241D02*
X143748809Y-83478002D01*
X143748809Y-83478002D02*
X143779047Y-83417526D01*
X143779047Y-83417526D02*
X143779047Y-82903479D01*
X144414047Y-83538479D02*
X144051190Y-83538479D01*
X144232618Y-83538479D02*
X144232618Y-82903479D01*
X144232618Y-82903479D02*
X144172142Y-82994193D01*
X144172142Y-82994193D02*
X144111666Y-83054669D01*
X144111666Y-83054669D02*
X144051190Y-83084907D01*
D11*
X160591667Y-128264450D02*
X160734524Y-128312069D01*
X160734524Y-128312069D02*
X160972619Y-128312069D01*
X160972619Y-128312069D02*
X161067857Y-128264450D01*
X161067857Y-128264450D02*
X161115476Y-128216830D01*
X161115476Y-128216830D02*
X161163095Y-128121592D01*
X161163095Y-128121592D02*
X161163095Y-128026354D01*
X161163095Y-128026354D02*
X161115476Y-127931116D01*
X161115476Y-127931116D02*
X161067857Y-127883497D01*
X161067857Y-127883497D02*
X160972619Y-127835878D01*
X160972619Y-127835878D02*
X160782143Y-127788259D01*
X160782143Y-127788259D02*
X160686905Y-127740640D01*
X160686905Y-127740640D02*
X160639286Y-127693021D01*
X160639286Y-127693021D02*
X160591667Y-127597783D01*
X160591667Y-127597783D02*
X160591667Y-127502545D01*
X160591667Y-127502545D02*
X160639286Y-127407307D01*
X160639286Y-127407307D02*
X160686905Y-127359688D01*
X160686905Y-127359688D02*
X160782143Y-127312069D01*
X160782143Y-127312069D02*
X161020238Y-127312069D01*
X161020238Y-127312069D02*
X161163095Y-127359688D01*
X161496429Y-127312069D02*
X161734524Y-128312069D01*
X161734524Y-128312069D02*
X161925000Y-127597783D01*
X161925000Y-127597783D02*
X162115476Y-128312069D01*
X162115476Y-128312069D02*
X162353572Y-127312069D01*
X163163095Y-127645402D02*
X163163095Y-128312069D01*
X162925000Y-127264450D02*
X162686905Y-127978735D01*
X162686905Y-127978735D02*
X163305952Y-127978735D01*
X141541667Y-128264450D02*
X141684524Y-128312069D01*
X141684524Y-128312069D02*
X141922619Y-128312069D01*
X141922619Y-128312069D02*
X142017857Y-128264450D01*
X142017857Y-128264450D02*
X142065476Y-128216830D01*
X142065476Y-128216830D02*
X142113095Y-128121592D01*
X142113095Y-128121592D02*
X142113095Y-128026354D01*
X142113095Y-128026354D02*
X142065476Y-127931116D01*
X142065476Y-127931116D02*
X142017857Y-127883497D01*
X142017857Y-127883497D02*
X141922619Y-127835878D01*
X141922619Y-127835878D02*
X141732143Y-127788259D01*
X141732143Y-127788259D02*
X141636905Y-127740640D01*
X141636905Y-127740640D02*
X141589286Y-127693021D01*
X141589286Y-127693021D02*
X141541667Y-127597783D01*
X141541667Y-127597783D02*
X141541667Y-127502545D01*
X141541667Y-127502545D02*
X141589286Y-127407307D01*
X141589286Y-127407307D02*
X141636905Y-127359688D01*
X141636905Y-127359688D02*
X141732143Y-127312069D01*
X141732143Y-127312069D02*
X141970238Y-127312069D01*
X141970238Y-127312069D02*
X142113095Y-127359688D01*
X142446429Y-127312069D02*
X142684524Y-128312069D01*
X142684524Y-128312069D02*
X142875000Y-127597783D01*
X142875000Y-127597783D02*
X143065476Y-128312069D01*
X143065476Y-128312069D02*
X143303572Y-127312069D01*
X143589286Y-127312069D02*
X144208333Y-127312069D01*
X144208333Y-127312069D02*
X143875000Y-127693021D01*
X143875000Y-127693021D02*
X144017857Y-127693021D01*
X144017857Y-127693021D02*
X144113095Y-127740640D01*
X144113095Y-127740640D02*
X144160714Y-127788259D01*
X144160714Y-127788259D02*
X144208333Y-127883497D01*
X144208333Y-127883497D02*
X144208333Y-128121592D01*
X144208333Y-128121592D02*
X144160714Y-128216830D01*
X144160714Y-128216830D02*
X144113095Y-128264450D01*
X144113095Y-128264450D02*
X144017857Y-128312069D01*
X144017857Y-128312069D02*
X143732143Y-128312069D01*
X143732143Y-128312069D02*
X143636905Y-128264450D01*
X143636905Y-128264450D02*
X143589286Y-128216830D01*
X141541667Y-109214450D02*
X141684524Y-109262069D01*
X141684524Y-109262069D02*
X141922619Y-109262069D01*
X141922619Y-109262069D02*
X142017857Y-109214450D01*
X142017857Y-109214450D02*
X142065476Y-109166830D01*
X142065476Y-109166830D02*
X142113095Y-109071592D01*
X142113095Y-109071592D02*
X142113095Y-108976354D01*
X142113095Y-108976354D02*
X142065476Y-108881116D01*
X142065476Y-108881116D02*
X142017857Y-108833497D01*
X142017857Y-108833497D02*
X141922619Y-108785878D01*
X141922619Y-108785878D02*
X141732143Y-108738259D01*
X141732143Y-108738259D02*
X141636905Y-108690640D01*
X141636905Y-108690640D02*
X141589286Y-108643021D01*
X141589286Y-108643021D02*
X141541667Y-108547783D01*
X141541667Y-108547783D02*
X141541667Y-108452545D01*
X141541667Y-108452545D02*
X141589286Y-108357307D01*
X141589286Y-108357307D02*
X141636905Y-108309688D01*
X141636905Y-108309688D02*
X141732143Y-108262069D01*
X141732143Y-108262069D02*
X141970238Y-108262069D01*
X141970238Y-108262069D02*
X142113095Y-108309688D01*
X142446429Y-108262069D02*
X142684524Y-109262069D01*
X142684524Y-109262069D02*
X142875000Y-108547783D01*
X142875000Y-108547783D02*
X143065476Y-109262069D01*
X143065476Y-109262069D02*
X143303572Y-108262069D01*
X143636905Y-108357307D02*
X143684524Y-108309688D01*
X143684524Y-108309688D02*
X143779762Y-108262069D01*
X143779762Y-108262069D02*
X144017857Y-108262069D01*
X144017857Y-108262069D02*
X144113095Y-108309688D01*
X144113095Y-108309688D02*
X144160714Y-108357307D01*
X144160714Y-108357307D02*
X144208333Y-108452545D01*
X144208333Y-108452545D02*
X144208333Y-108547783D01*
X144208333Y-108547783D02*
X144160714Y-108690640D01*
X144160714Y-108690640D02*
X143589286Y-109262069D01*
X143589286Y-109262069D02*
X144208333Y-109262069D01*
X160591667Y-109214450D02*
X160734524Y-109262069D01*
X160734524Y-109262069D02*
X160972619Y-109262069D01*
X160972619Y-109262069D02*
X161067857Y-109214450D01*
X161067857Y-109214450D02*
X161115476Y-109166830D01*
X161115476Y-109166830D02*
X161163095Y-109071592D01*
X161163095Y-109071592D02*
X161163095Y-108976354D01*
X161163095Y-108976354D02*
X161115476Y-108881116D01*
X161115476Y-108881116D02*
X161067857Y-108833497D01*
X161067857Y-108833497D02*
X160972619Y-108785878D01*
X160972619Y-108785878D02*
X160782143Y-108738259D01*
X160782143Y-108738259D02*
X160686905Y-108690640D01*
X160686905Y-108690640D02*
X160639286Y-108643021D01*
X160639286Y-108643021D02*
X160591667Y-108547783D01*
X160591667Y-108547783D02*
X160591667Y-108452545D01*
X160591667Y-108452545D02*
X160639286Y-108357307D01*
X160639286Y-108357307D02*
X160686905Y-108309688D01*
X160686905Y-108309688D02*
X160782143Y-108262069D01*
X160782143Y-108262069D02*
X161020238Y-108262069D01*
X161020238Y-108262069D02*
X161163095Y-108309688D01*
X161496429Y-108262069D02*
X161734524Y-109262069D01*
X161734524Y-109262069D02*
X161925000Y-108547783D01*
X161925000Y-108547783D02*
X162115476Y-109262069D01*
X162115476Y-109262069D02*
X162353572Y-108262069D01*
X163258333Y-109262069D02*
X162686905Y-109262069D01*
X162972619Y-109262069D02*
X162972619Y-108262069D01*
X162972619Y-108262069D02*
X162877381Y-108404926D01*
X162877381Y-108404926D02*
X162782143Y-108500164D01*
X162782143Y-108500164D02*
X162686905Y-108547783D01*
D13*
%TO.C,D3*%
X169200000Y-95000000D02*
X169200000Y-99000000D01*
X169200000Y-95000000D02*
X174800000Y-95000000D01*
X169200000Y-99000000D02*
X174200000Y-99000000D01*
X174800000Y-98400000D02*
X174200000Y-99000000D01*
X174800000Y-98400000D02*
X174800000Y-95000000D01*
%TO.C,D1*%
X180200000Y-95000000D02*
X180200000Y-99000000D01*
X180200000Y-95000000D02*
X185800000Y-95000000D01*
X180200000Y-99000000D02*
X185200000Y-99000000D01*
X185800000Y-98400000D02*
X185200000Y-99000000D01*
X185800000Y-98400000D02*
X185800000Y-95000000D01*
%TO.C,SW6*%
X174125000Y-128746250D02*
X188095000Y-128746250D01*
X174125000Y-142716250D02*
X174125000Y-128746250D01*
X188095000Y-128746250D02*
X188095000Y-142716250D01*
X188095000Y-142716250D02*
X174125000Y-142716250D01*
%TO.C,SW5*%
X174125000Y-109696250D02*
X188095000Y-109696250D01*
X174125000Y-123666250D02*
X174125000Y-109696250D01*
X188095000Y-109696250D02*
X188095000Y-123666250D01*
X188095000Y-123666250D02*
X174125000Y-123666250D01*
%TO.C,U1*%
D14*
X144845000Y-85830000D02*
G75*
G02*
X144341000Y-85830000I-252000J0D01*
G01*
X144341000Y-85830000D02*
G75*
G02*
X144845000Y-85830000I252000J0D01*
G01*
X143702000Y-84950000D02*
G75*
G02*
X143198000Y-84950000I-252000J0D01*
G01*
X143198000Y-84950000D02*
G75*
G02*
X143702000Y-84950000I252000J0D01*
G01*
D15*
X161290000Y-103759000D02*
G75*
G02*
X159385000Y-105664000I-1905000J0D01*
G01*
X159385000Y-84709000D02*
G75*
G02*
X161290000Y-86614000I0J-1905000D01*
G01*
X156404000Y-83299000D02*
G75*
G02*
X156904000Y-83799000I0J-500000D01*
G01*
X147908728Y-83798728D02*
G75*
G02*
X148408728Y-83299001I500018J-291D01*
G01*
X145415000Y-105664000D02*
G75*
G02*
X143510000Y-103759000I1J1905001D01*
G01*
X143510000Y-86614000D02*
G75*
G02*
X145415000Y-84709000I1905001J-1D01*
G01*
X161290000Y-103759000D02*
X161290000Y-86614000D01*
X159385000Y-84709000D02*
X145415000Y-84709000D01*
D16*
X159385000Y-84709000D02*
X145415000Y-84709000D01*
D15*
X156904000Y-83799000D02*
X156904000Y-84709000D01*
X148408728Y-83299000D02*
X156404000Y-83299000D01*
X147905000Y-84709000D02*
X147908728Y-83798728D01*
X145415000Y-105664000D02*
X159385000Y-105664000D01*
X143510000Y-103759000D02*
X143510000Y-86614000D01*
D13*
%TO.C,SW4*%
X154940000Y-128746250D02*
X168910000Y-128746250D01*
X154940000Y-142716250D02*
X154940000Y-128746250D01*
X168910000Y-128746250D02*
X168910000Y-142716250D01*
X168910000Y-142716250D02*
X154940000Y-142716250D01*
%TO.C,SW3*%
X135890000Y-128746250D02*
X149860000Y-128746250D01*
X135890000Y-142716250D02*
X135890000Y-128746250D01*
X149860000Y-128746250D02*
X149860000Y-142716250D01*
X149860000Y-142716250D02*
X135890000Y-142716250D01*
%TO.C,SW2*%
X135890000Y-109696250D02*
X149860000Y-109696250D01*
X135890000Y-123666250D02*
X135890000Y-109696250D01*
X149860000Y-109696250D02*
X149860000Y-123666250D01*
X149860000Y-123666250D02*
X135890000Y-123666250D01*
%TO.C,SW1*%
X154940000Y-109696250D02*
X168910000Y-109696250D01*
X154940000Y-123666250D02*
X154940000Y-109696250D01*
X168910000Y-109696250D02*
X168910000Y-123666250D01*
X168910000Y-123666250D02*
X154940000Y-123666250D01*
%TD*%
M02*
