%TF.GenerationSoftware,KiCad,Pcbnew,9.0.2*%
%TF.CreationDate,2025-07-08T20:10:04-07:00*%
%TF.ProjectId,Hackpad,4861636b-7061-4642-9e6b-696361645f70,rev?*%
%TF.SameCoordinates,Original*%
%TF.FileFunction,Soldermask,Bot*%
%TF.FilePolarity,Negative*%
%FSLAX46Y46*%
G04 Gerber Fmt 4.6, Leading zero omitted, Abs format (unit mm)*
G04 Created by KiCad (PCBNEW 9.0.2) date 2025-07-08 20:10:04*
%MOMM*%
%LPD*%
G01*
G04 APERTURE LIST*
%ADD10C,1.700000*%
%ADD11C,4.000000*%
%ADD12C,2.200000*%
%ADD13C,1.524000*%
G04 APERTURE END LIST*
D10*
%TO.C,SW6*%
X176030000Y-135731250D03*
D11*
X181110000Y-135731250D03*
D10*
X186190000Y-135731250D03*
D12*
X183650000Y-130651250D03*
X177300000Y-133191250D03*
%TD*%
D10*
%TO.C,SW5*%
X176030000Y-116681250D03*
D11*
X181110000Y-116681250D03*
D10*
X186190000Y-116681250D03*
D12*
X183650000Y-111601250D03*
X177300000Y-114141250D03*
%TD*%
D13*
%TO.C,U1*%
X160020000Y-87630000D03*
X160020000Y-90170000D03*
X160020000Y-92710000D03*
X160020000Y-95250000D03*
X160020000Y-97790000D03*
X160020000Y-100330000D03*
X160020000Y-102870000D03*
X144780000Y-102870000D03*
X144780000Y-100330000D03*
X144780000Y-97790000D03*
X144780000Y-95250000D03*
X144780000Y-92710000D03*
X144780000Y-90170000D03*
X144780000Y-87630000D03*
%TD*%
D10*
%TO.C,SW4*%
X156845000Y-135731250D03*
D11*
X161925000Y-135731250D03*
D10*
X167005000Y-135731250D03*
D12*
X164465000Y-130651250D03*
X158115000Y-133191250D03*
%TD*%
D10*
%TO.C,SW3*%
X137795000Y-135731250D03*
D11*
X142875000Y-135731250D03*
D10*
X147955000Y-135731250D03*
D12*
X145415000Y-130651250D03*
X139065000Y-133191250D03*
%TD*%
D10*
%TO.C,SW2*%
X137795000Y-116681250D03*
D11*
X142875000Y-116681250D03*
D10*
X147955000Y-116681250D03*
D12*
X145415000Y-111601250D03*
X139065000Y-114141250D03*
%TD*%
D10*
%TO.C,SW1*%
X156845000Y-116681250D03*
D11*
X161925000Y-116681250D03*
D10*
X167005000Y-116681250D03*
D12*
X164465000Y-111601250D03*
X158115000Y-114141250D03*
%TD*%
M02*
